<svg xmlns="http://www.w3.org/2000/svg" width="512" height="512" viewBox="0 0 512 512" fill="none"><metadata><rdf:RDF xmlns:rdf="http://www.w3.org/1999/02/22-rdf-syntax-ns#" xmlns:dc="http://purl.org/dc/elements/1.1/"><rdf:Description><dc:creator>RealFaviconGenerator</dc:creator><dc:source>https://realfavicongenerator.net</dc:source></rdf:Description></rdf:RDF></metadata><path d="M398.388 21C395.204 21 382.79 32.8662 371.587 48.1606C364.985 57.1733 358.52 64.5357 353.07 70.3522C348.415 67.8811 343.659 65.5771 338.803 63.459C338.864 62.5912 338.889 61.6769 338.838 60.6639C338.162 47.2048 335.616 36.3284 333.18 36.4953C331.115 36.6349 323.917 44.6052 316.136 55.1193C297.123 49.366 276.976 46.239 256.096 46.239C141.275 46.239 48.1929 139.744 48.1929 255.089C48.1929 267.624 49.3531 279.878 51.4605 291.806C45.3803 291.917 33.3742 292.878 23.7015 294.053C13.0748 295.344 5.44531 297.879 6.03162 299.924C6.59876 301.902 17.8786 306.859 31.0962 310.937C43.9023 314.889 56.1058 319.357 58.8501 321.08C75.9508 372.678 112.519 415.308 159.835 440.191C158.543 453.927 157.987 478.923 159.42 482.875C161.055 487.345 165.105 491 168.418 491C171.731 491 180.362 481.173 187.599 469.159H187.614C190.804 463.864 194.006 459.055 196.781 455.262C201.098 456.551 205.479 457.689 209.909 458.699C210.069 459.341 210.232 459.982 210.374 460.65C211.932 467.995 214.195 477.83 215.403 482.504C216.611 487.177 219.616 491 222.082 491C224.547 491 230.374 481.684 235.029 470.296C236.015 467.881 237.102 465.468 238.223 463.117C244.12 463.622 250.07 463.935 256.097 463.935C310.726 463.935 360.404 442.741 397.508 408.127C405.475 407.454 410.806 410.043 422.231 415.386C431.524 419.731 440.879 423.3 443.02 423.317C445.161 423.348 446.913 421.528 446.913 419.305C446.913 417.082 440.559 408.999 432.792 401.342C427.539 396.163 422.434 389.687 419.262 384.433C447.248 348.857 464 303.952 464 255.089C464 187.365 431.885 127.199 382.148 89.0392C384.461 81.4504 387.266 72.9647 390.247 64.8452C397.555 44.9347 404.176 27.4259 404.176 25.1458C404.176 22.8655 401.572 21 398.388 21ZM279.224 77.3438C282.147 77.3438 285.071 77.442 287.988 77.5862C295.742 77.9692 303.582 78.2898 311.152 80.0202C318.015 81.5889 324.78 83.9208 331.037 87.1582C337.386 90.4433 343.381 94.5815 348.624 99.4546C353.192 103.701 357.649 108.387 360.442 113.975C362.473 118.039 363.652 122.664 363.74 127.211C363.818 131.307 362.287 135.281 361.229 139.237C360.731 141.099 360.3 143.015 359.426 144.731C358.449 146.65 357.074 148.355 355.649 149.966C352.032 154.054 347.935 157.724 343.644 161.09C339.36 164.453 334.883 167.661 330.011 170.087C325.528 172.319 315.855 175.101 315.855 175.101C315.855 175.101 308.121 177.134 303.926 176.985C300.331 176.857 296.791 175.789 293.412 174.551C289.051 172.953 284.768 170.918 281.013 168.176C276.419 164.82 272.658 160.408 268.948 156.086C263.723 149.998 259.186 143.336 254.682 136.692C250.517 130.549 246.059 124.515 242.904 117.793C240.795 113.299 238.594 108.607 238.211 103.653C237.912 99.7841 238.446 95.6635 240.134 92.1727C241.629 89.0801 244.253 86.5344 247.041 84.5398C250.349 82.1728 254.342 80.8638 258.241 79.7197C262.206 78.5562 266.351 78.0437 270.467 77.692C273.376 77.4433 276.3 77.3438 279.224 77.3438ZM214.634 103.404C216.485 103.38 219.526 104.568 221.391 106.042C223.313 107.561 224.781 110.022 224.781 111.723C224.781 113.373 223.865 115.074 222.745 115.505C221.626 115.937 218.483 116.291 215.76 116.291C212.976 116.291 209.925 115.403 208.788 114.261C207.675 113.143 206.765 111.025 206.765 109.554C206.765 108.084 207.778 106.108 209.017 105.163C210.255 104.219 212.783 103.426 214.634 103.404ZM174.956 110.66C181.571 110.63 185.54 111.307 188.748 113.008C191.225 114.323 196.148 117.533 199.687 120.144C203.226 122.754 209.735 126.814 214.149 129.165C218.564 131.516 224.828 136.289 228.072 139.773C231.315 143.256 235.343 149.142 237.022 152.852C239.046 157.325 240.369 163.321 240.948 170.647C241.458 177.086 241.205 186.349 240.345 192.847C239.532 198.979 237.735 207.307 236.348 211.357C234.962 215.406 231.71 223.161 229.125 228.589C226.539 234.017 220.895 243.692 216.58 250.092C212.265 256.491 202.699 267.979 195.323 275.621C187.545 283.68 177.267 292.686 170.852 297.065C164.769 301.218 155.16 306.962 149.497 309.834C143.835 312.705 135.329 316.292 130.596 317.803C124.08 319.882 118.923 320.519 109.362 320.431C102.416 320.366 94.8689 319.772 92.5892 319.11C90.3094 318.449 84.8079 315.108 80.3636 311.687C75.9192 308.266 70.519 303.153 68.3616 300.322C66.2044 297.492 63.1003 291.141 61.4646 286.208C59.8286 281.276 58.1704 273.749 57.78 269.483C57.3896 265.217 57.1285 257.945 57.1992 253.323C57.27 248.702 57.5924 240.267 57.9156 234.578C58.2385 228.89 59.9066 219.952 61.8668 212.862C63.8298 205.761 66.4094 198.795 69.6385 192.177C73.0716 185.142 77.2204 178.427 81.8819 172.145C84.553 168.545 87.8016 165.418 90.8272 162.113C92.7043 160.063 94.5024 157.927 96.5379 156.036C101.54 151.388 107.027 147.289 112.448 143.143C118.662 138.392 124.909 133.661 131.481 129.423C138.25 125.057 145.039 120.572 152.436 117.394C159.637 114.3 166.371 110.699 174.956 110.66ZM382.638 174.518C387.267 174.479 389.393 175.326 395.239 178.217C399.821 180.483 405.236 184.368 407.271 186.847C409.306 189.327 412.317 194.064 413.964 197.376C415.942 201.354 417.396 207.536 418.25 215.591C419.131 223.913 419.112 231.942 418.189 240.878C417.369 248.818 415.281 258.635 412.883 265.822C410.709 272.34 406.362 282.94 403.224 289.38C400.086 295.819 393.461 306.776 388.505 313.727C383.548 320.678 374.941 330.958 369.377 336.573C363.814 342.187 354.63 350.695 348.968 355.477C343.305 360.259 332.302 368.382 324.516 373.528C316.731 378.674 304.28 385.943 296.848 389.682C289.416 393.421 278.123 398.252 271.753 400.418C265.383 402.584 257.275 404.841 253.736 405.435C250.197 406.029 238.905 406.204 228.642 405.822C210.303 405.138 209.826 405.045 200.865 400.418C194.918 397.347 189.465 393.203 185.189 388.503C180.556 383.411 178.04 379.247 176.613 374.315C175.502 370.476 174.592 364.722 174.592 361.529C174.592 358.336 175.817 351.736 177.314 346.862C178.811 341.988 181.784 334.514 183.922 330.255C186.06 325.997 191.206 317.442 195.356 311.243C199.505 305.044 205.601 296.601 208.903 292.483C212.205 288.365 219.3 280.371 224.67 274.717C230.041 269.064 238.487 260.391 243.441 255.445C248.396 250.498 255.345 243.684 258.884 240.303C262.423 236.921 272.557 228.808 281.405 222.277C290.252 215.746 302.703 207.346 309.073 203.608C315.444 199.869 326.909 193.544 334.55 189.554C342.191 185.564 352.615 180.775 357.715 178.912C363.216 176.9 371.035 175.231 376.945 174.808C379.275 174.642 381.096 174.531 382.638 174.518ZM444.684 274.492C445.201 274.461 445.66 274.505 446.044 274.626C447.434 275.07 448.979 276.711 449.475 278.275C449.971 279.838 450.372 286.644 450.36 293.399C450.347 302.093 449.521 308.613 447.522 315.719C445.969 321.241 442.603 330.258 440.042 335.757C437.481 341.257 432.195 350.41 428.296 356.098C424.398 361.786 417.054 370.542 411.976 375.555C406.312 381.147 399.235 386.524 393.668 389.463C388.677 392.097 382.079 394.589 379.007 395C375.283 395.497 372.883 395.192 371.811 394.086C370.926 393.172 370.202 390.008 370.202 387.056C370.202 383.175 372.141 377.721 377.204 367.357C381.056 359.474 390.616 343.032 398.448 330.819C406.281 318.605 417.604 302.039 423.611 294.005C429.617 285.972 436.553 278.145 439.024 276.611C441.068 275.342 443.133 274.585 444.684 274.492Z" fill="#330039"></path></svg>